<?xml version="1.0" standalone="no"?>
<!DOCTYPE svg PUBLIC "-//W3C//DTD SVG 20010904//EN"
 "http://www.w3.org/TR/2001/REC-SVG-20010904/DTD/svg10.dtd">
<svg version="1.0" xmlns="http://www.w3.org/2000/svg"
 width="900.000000pt" height="900.000000pt" viewBox="0 0 900.000000 900.000000"
 preserveAspectRatio="xMidYMid meet">
<metadata>
Created by potrace 1.11, written by Peter Selinger 2001-2013
</metadata>
<g transform="translate(0.000000,900.000000) scale(0.100000,-0.100000)"
fill="#000000" stroke="none">
<path d="M4314 8319 c-501 -35 -978 -295 -1281 -699 -221 -294 -338 -627 -350
-996 -8 -241 16 -414 88 -628 151 -446 473 -814 894 -1021 647 -317 1406 -214
1952 265 566 496 750 1330 446 2024 -302 688 -997 1107 -1749 1055z m372 -485
c210 -37 361 -118 501 -268 132 -141 189 -290 180 -471 -7 -170 -54 -266 -206
-427 -52 -54 -154 -150 -226 -213 -236 -203 -263 -245 -274 -429 l-6 -101
-220 0 -220 0 1 135 c3 297 71 415 404 695 244 206 265 236 265 380 0 78 -4
97 -27 140 -67 129 -212 205 -388 205 -236 0 -406 -134 -475 -374 -16 -58 -17
-58 -48 -53 -18 2 -119 15 -225 28 l-194 23 7 55 c39 309 290 579 615 661 159
41 359 46 536 14z m16 -2161 c2 -43 2 -153 0 -246 l-3 -167 -242 2 -242 3 -3
243 -2 242 244 0 245 0 3 -77z"/>
<path d="M2965 4721 c-565 -145 -1018 -471 -1313 -946 -200 -323 -340 -729
-388 -1127 l-16 -137 48 -83 c209 -356 581 -757 961 -1035 733 -536 1668 -788
2598 -702 658 61 1274 325 1786 766 274 237 542 553 730 865 108 179 105 166
90 330 -85 963 -643 1690 -1568 2042 -67 25 -133 46 -145 46 -13 0 -57 -23
-98 -51 -41 -28 -142 -84 -225 -125 -705 -352 -1540 -300 -2204 136 -50 33
-95 60 -99 59 -4 0 -74 -17 -157 -38z"/>
</g>
</svg>
